
        <svg xmlns="http://www.w3.org/2000/svg" xmlns:xlink="http://www.w3.org/1999/xlink" version="1.1" width="3175.953079178885" 
        height="897.3607038123166" viewBox="0 0 3175.953079178885 897.3607038123166">
			
			<g transform="scale(8.79765395894428) translate(10, 10)">
				<defs id="SvgjsDefs2720"><linearGradient id="SvgjsLinearGradient2729"><stop id="SvgjsStop2730" stop-color="#8f5e25" offset="0"></stop><stop id="SvgjsStop2731" stop-color="#fbf4a1" offset="0.5"></stop><stop id="SvgjsStop2732" stop-color="#8f5e25" offset="1"></stop></linearGradient><linearGradient id="SvgjsLinearGradient2733"><stop id="SvgjsStop2734" stop-color="#8f5e25" offset="0"></stop><stop id="SvgjsStop2735" stop-color="#fbf4a1" offset="0.5"></stop><stop id="SvgjsStop2736" stop-color="#8f5e25" offset="1"></stop></linearGradient><linearGradient id="SvgjsLinearGradient2737"><stop id="SvgjsStop2738" stop-color="#8f5e25" offset="0"></stop><stop id="SvgjsStop2739" stop-color="#fbf4a1" offset="0.5"></stop><stop id="SvgjsStop2740" stop-color="#8f5e25" offset="1"></stop></linearGradient><linearGradient id="SvgjsLinearGradient2741"><stop id="SvgjsStop2742" stop-color="#8f5e25" offset="0"></stop><stop id="SvgjsStop2743" stop-color="#fbf4a1" offset="0.5"></stop><stop id="SvgjsStop2744" stop-color="#8f5e25" offset="1"></stop></linearGradient></defs><g id="SvgjsG2721" featureKey="symbolFeature-0" transform="matrix(1.066319465637207,0,0,1.066319465637207,-9.539789029473885,-11.24857549076912)" fill="url(#SvgjsLinearGradient2729)"><path xmlns="http://www.w3.org/2000/svg" d="M88.331,70.125c-5.074-0.587-8.701,1.202-10.783,5.317l-0.049,0.12c-1.08,3.378-2.414,5.236-3.965,5.523  c-1.57,0.292-3.66-1.052-6.055-3.894l0.865-0.831c0.156-0.15,0.246-0.357,0.251-0.573c0.004-0.217-0.078-0.426-0.228-0.582  l-3.207-3.335c0.544-0.988,0.894-2.059,1.005-3.158c0.204-2.022-0.399-3.878-1.696-5.227l-3.673-3.817  c-0.008-0.008-0.014-0.017-0.021-0.025l-0.001,0.001L50.445,48.907L37.89,29.663c-1.016-1.557-2.548-2.589-4.464-3.038l-7.824-6.093  c-0.038-0.097-0.094-0.19-0.171-0.27l-1.998-2.078c-0.313-0.325-0.83-0.335-1.156-0.023c-0.325,0.313-0.335,0.831-0.023,1.156  l1.432,1.489l-1.001,0.963l-1.432-1.489c-0.313-0.326-0.83-0.335-1.156-0.023c-0.325,0.313-0.335,0.831-0.023,1.156l1.432,1.489  l-1.001,0.963l-1.432-1.489c-0.313-0.326-0.83-0.335-1.156-0.023c-0.325,0.313-0.335,0.831-0.023,1.156l1.432,1.489l-1.001,0.963  l-1.432-1.489c-0.313-0.326-0.83-0.335-1.156-0.023c-0.325,0.313-0.335,0.831-0.023,1.156l1.432,1.489l-1.001,0.962l-1.432-1.489  c-0.313-0.325-0.83-0.335-1.156-0.023c-0.325,0.313-0.335,0.831-0.023,1.156l1.432,1.489l-1.001,0.963l-1.432-1.489  c-0.313-0.326-0.83-0.335-1.156-0.023c-0.325,0.313-0.335,0.831-0.023,1.156l1.432,1.489l-1.001,0.962l-1.432-1.489  c-0.314-0.325-0.832-0.335-1.156-0.022c-0.325,0.313-0.335,0.83-0.023,1.156l1.966,2.044l6.185,8.288  c0.387,1.887,1.349,3.425,2.839,4.482l18.74,13.298l0.597,0.62l-0.671,0.645c-0.444,0.427-0.721,0.985-0.78,1.57  c-0.063,0.626,0.137,1.23,0.549,1.658l2.606,2.711c0.397,0.412,0.937,0.616,1.496,0.616c0.609,0,1.241-0.242,1.74-0.72l0.671-0.645  l7.812,8.125c1.235,1.284,2.924,1.916,4.697,1.916c1.168,0,2.371-0.284,3.508-0.827l3.242,3.372c0.15,0.156,0.357,0.246,0.573,0.251  c0.005,0,0.011,0,0.016,0c0.211,0,0.414-0.082,0.567-0.228l0.773-0.744c2.519,2.974,4.75,4.436,6.778,4.436  c0.255,0,0.506-0.023,0.755-0.069c2.208-0.409,3.911-2.558,5.204-6.569c1.768-3.447,4.745-4.877,9.108-4.375  c0.44,0.055,0.854-0.269,0.906-0.718C89.101,70.582,88.779,70.176,88.331,70.125z M16.688,29.802  C16.688,29.802,16.688,29.802,16.688,29.802c0.001-0.001,0.001-0.001,0.001-0.001l7.46-7.173l0.664-0.639l5.66,4.408  c-3.116,0.204-6.446,1.682-8.897,4.039c-2.485,2.39-4.103,5.717-4.397,8.861l-4.332-5.804L16.688,29.802z M18.784,40.935  c-0.233-3.143,1.307-6.802,3.926-9.32c2.347-2.257,5.575-3.612,8.474-3.612c0.335,0,0.667,0.018,0.991,0.055  c1.338,0.153,3.178,0.71,4.345,2.498l1.13,1.732c-3.499-0.27-7.509,1.246-10.412,4.037c-2.881,2.77-4.556,6.763-4.434,10.253  l-1.695-1.205C19.369,44.138,18.885,42.278,18.784,40.935z M24.598,47.852c-0.713-3.278,0.823-7.511,3.774-10.348  c2.896-2.786,7.175-4.182,10.402-3.391l0.018-0.075l10.326,15.828l10.479,10.908l-0.001,0.001c0.959,0.997,1.402,2.393,1.248,3.93  c-0.16,1.587-0.93,3.117-2.169,4.308c-1.239,1.191-2.797,1.901-4.389,1.998c-1.539,0.091-2.919-0.404-3.878-1.402l0,0L40.029,58.816  L24.598,47.852z M43.307,65.927c-0.327,0.314-0.749,0.331-0.924,0.149l-2.606-2.711c-0.108-0.112-0.11-0.275-0.101-0.362  c0.02-0.197,0.124-0.399,0.287-0.555l0.671-0.645l3.344,3.478L43.307,65.927z M54.101,73.452l-0.789-0.821  c0.203,0.017,0.408,0.028,0.614,0.027c2.035,0,4.182-0.832,5.883-2.467c1.518-1.46,2.463-3.351,2.662-5.323  c0.037-0.367,0.038-0.726,0.023-1.081l0.797,0.829c0.959,0.997,1.402,2.393,1.248,3.93c-0.16,1.587-0.93,3.117-2.169,4.308  c-1.239,1.191-2.797,1.901-4.389,1.998C56.44,74.946,55.06,74.449,54.101,73.452z M64.981,77.324l-2.416-2.513  c0.323-0.237,0.639-0.49,0.938-0.777c0.258-0.248,0.493-0.513,0.717-0.784l2.401,2.497L64.981,77.324z M62.501,40.649  c0-0.451,0.366-0.818,0.818-0.818h7.49c0.452,0,0.818,0.366,0.818,0.818s-0.366,0.818-0.818,0.818h-7.49  C62.867,41.467,62.501,41.101,62.501,40.649z M56.113,38.403h1.917v4.061c0,1.364,1.11,2.474,2.473,2.474h13.775  c1.364,0,2.473-1.11,2.473-2.474v-4.061h1.916c1.707,0,3.096-1.389,3.096-3.096V16.056c0-0.451-0.366-0.818-0.818-0.818  s-0.818,0.366-0.818,0.818v5.684h-1.592v-5.684c0-0.451-0.366-0.818-0.818-0.818s-0.818,0.366-0.818,0.818v5.684h-1.807v-5.684  c0-0.451-0.366-0.818-0.818-0.818s-0.818,0.366-0.818,0.818v5.684H71.65v-5.684c0-0.451-0.366-0.818-0.818-0.818  s-0.818,0.366-0.818,0.818v5.684h-1.807v-5.684c0-0.451-0.366-0.818-0.818-0.818s-0.818,0.366-0.818,0.818v5.684h-1.807v-5.684  c0-0.451-0.366-0.818-0.818-0.818c-0.452,0-0.818,0.366-0.818,0.818v5.684h-1.807v-5.684c0-0.451-0.366-0.818-0.818-0.818  s-0.818,0.366-0.818,0.818v5.684h-1.808v-5.684c0-0.451-0.366-0.818-0.818-0.818s-0.818,0.366-0.818,0.818v5.684h-1.592v-5.684  c0-0.451-0.366-0.818-0.818-0.818s-0.818,0.366-0.818,0.818v19.251C53.017,37.014,54.406,38.403,56.113,38.403z M75.116,42.464  c0,0.462-0.376,0.839-0.838,0.839H60.503c-0.462,0-0.838-0.376-0.838-0.839v-4.061h15.451V42.464z M54.652,23.375h25.476v11.932  c0,0.806-0.655,1.461-1.461,1.461h-1.916H56.113c-0.806,0-1.461-0.655-1.461-1.461V23.375z M58.773,35.166  c1.311,0,2.378-1.067,2.378-2.378c0-1.311-1.066-2.378-2.378-2.378c-1.311,0-2.378,1.067-2.378,2.378  C56.396,34.1,57.462,35.166,58.773,35.166z M58.773,32.046c0.409,0,0.742,0.333,0.742,0.742s-0.333,0.742-0.742,0.742  s-0.742-0.333-0.742-0.742S58.364,32.046,58.773,32.046z M76.008,35.116c1.311,0,2.377-1.066,2.377-2.377  c0-1.311-1.066-2.378-2.377-2.378c-1.311,0-2.378,1.067-2.378,2.378C73.63,34.049,74.697,35.116,76.008,35.116z M76.008,31.996  c0.409,0,0.742,0.333,0.742,0.742c0,0.409-0.333,0.742-0.742,0.742c-0.409,0-0.742-0.333-0.742-0.742  C75.265,32.329,75.599,31.996,76.008,31.996z"></path></g><g id="SvgjsG2722" featureKey="textGroupContainer" transform="matrix(1,0,0,1,340,0)" fill="url(#SvgjsLinearGradient2733)"><rect xmlns="http://www.w3.org/2000/svg" y="0" height="1" width="1" opacity="0"></rect><rect xmlns="http://www.w3.org/2000/svg" y="0" x="-235" width="5" height="82"></rect></g><g id="SvgjsG2723" featureKey="nameFeature-0" transform="matrix(1.5989766120910645,0,0,1.5989766120910645,121.08122834714061,11.789897286197323)" fill="url(#SvgjsLinearGradient2737)"><path d="M4.12 17.32 l5.92 0 l0 2.68 l-6.32 0 l-2.52 0 l0 -14 l2.92 0 l5.74 0 l0 2.68 l-5.74 0 l0 2.96 l4.34 0 l0 2.64 l-4.34 0 l0 3.04 z M27.14 6 l0 14 l-3 0 l0 -7.44 l-3.26 7.44 l-2.52 0 l-3.22 -7.4 l0 7.4 l-3 0 l0 -14 l2.88 0 l4.62 10.1 l4.62 -10.1 l2.88 0 z M44.540000000000006 6 l0 14 l-3 0 l0 -7.44 l-3.26 7.44 l-2.52 0 l-3.22 -7.4 l0 7.4 l-3 0 l0 -14 l2.88 0 l4.62 10.1 l4.62 -10.1 l2.88 0 z M58.12000000000001 20 l-1.06 -2.5 l-6.76 0 l-1.06 2.5 l-3.1 0 l6.22 -14 l2.64 0 l6.24 14 l-3.12 0 z M51.32000000000001 15.120000000000001 l4.72 0 l-2.36 -5.54 z M70.56 12.24 c1.48 0.4 2.88 1.72 2.88 3.66 c0 2.54 -1.6 4.1 -5.08 4.1 l-5.52 0 l0 -14 l5.22 0 c2.9 0 4.36 1.64 4.36 3.52 c0 1.48 -0.96 2.32 -1.86 2.72 z M67.78 8.56 l-2.02 0 l0 2.82 l2.02 0 c1.24 0 1.74 -0.58 1.74 -1.42 c0 -0.9 -0.58 -1.4 -1.74 -1.4 z M68.2 17.44 c1.6 0 2.32 -0.66 2.32 -1.9 c0 -1.06 -0.72 -1.8 -2.44 -1.8 l-2.32 0 l0 3.7 l2.44 0 z M86.52000000000001 20 l-1.06 -2.5 l-6.76 0 l-1.06 2.5 l-3.1 0 l6.22 -14 l2.64 0 l6.24 14 l-3.12 0 z M79.72000000000001 15.120000000000001 l4.72 0 l-2.36 -5.54 z M102.26000000000002 20 l-3.1 0 l-2.98 -4.66 l-0.04 0 l-1.98 0 l0 4.66 l-2.92 0 l0 -14 l4.9 0 c3.14 0 5.18 1.9 5.18 4.76 c0 1.9 -0.92 3.32 -2.48 4.04 z M94.16000000000003 8.68 l0 4.14 l1.8 0 c1.44 0 2.44 -0.56 2.44 -2.06 c0 -1.48 -1 -2.08 -2.44 -2.08 l-1.8 0 z M111.78000000000002 12.24 c1.48 0.4 2.88 1.72 2.88 3.66 c0 2.54 -1.6 4.1 -5.08 4.1 l-5.52 0 l0 -14 l5.22 0 c2.9 0 4.36 1.64 4.36 3.52 c0 1.48 -0.96 2.32 -1.86 2.72 z M109.00000000000001 8.56 l-2.02 0 l0 2.82 l2.02 0 c1.24 0 1.74 -0.58 1.74 -1.42 c0 -0.9 -0.58 -1.4 -1.74 -1.4 z M109.42000000000002 17.44 c1.6 0 2.32 -0.66 2.32 -1.9 c0 -1.06 -0.72 -1.8 -2.44 -1.8 l-2.32 0 l0 3.7 l2.44 0 z M121.14000000000001 5.76 c2.46 0 4.02 1.54 4.76 2.9 l-2.16 1.28 c-0.76 -1.06 -1.5 -1.6 -2.6 -1.6 c-0.98 0 -1.7 0.58 -1.7 1.38 s0.46 1.22 1.56 1.62 l0.96 0.34 c3.1 1.1 4.32 2.48 4.32 4.4 c0 2.82 -2.68 4.22 -5.06 4.22 c-2.52 0 -4.48 -1.5 -5.16 -3.46 l2.24 -1.18 c0.5 1.02 1.34 2 2.92 2 c1.14 0 2.02 -0.5 2.02 -1.54 c0 -1 -0.6 -1.44 -2.12 -2.02 l-0.86 -0.3 c-2.06 -0.74 -3.72 -1.76 -3.72 -4.2 c0 -2.24 2.1 -3.84 4.6 -3.84 z"></path></g><g id="SvgjsG2724" featureKey="sloganFeature-0" transform="matrix(0.5110062956809998,0,0,0.5110062956809998,122.38679274591995,51.628932153946124)" fill="url(#SvgjsLinearGradient2741)"><path d="M8.7 16.259999999999998 l1.1 -1.9 q0.6 0.04 1.05 0.2 t0.99 0.52 q0.38 0.24 1.34 0.96 l0.38 0.28 q0.72 -0.78 1.12 -1.74 q0.42 -1.02 0.42 -2.14 q0 -1.6 -0.82 -2.9 q-0.78 -1.26 -2.13 -1.98 t-2.93 -0.72 q-1.64 0 -2.99 0.74 t-2.11 2.02 q-0.78 1.34 -0.78 2.98 q0 1.56 0.84 2.88 q0.8 1.24 2.15 1.97 t2.91 0.73 q1.28 0 2.44 -0.52 q-1.02 -0.76 -1.54 -1.02 q-0.64 -0.32 -1.44 -0.36 z M17.26 12.559999999999999 q0 1.42 -0.52 2.74 q-0.48 1.24 -1.4 2.3 q1.24 0.76 2.24 0.84 l-1.1 1.9 q-0.78 -0.08 -1.52 -0.44 q-0.56 -0.26 -1.34 -0.82 q-0.96 0.62 -2.08 0.94 t-2.32 0.32 q-2.22 0 -4.08 -1.08 q-1.82 -1.04 -2.86 -2.86 q-1.08 -1.86 -1.08 -4.08 q0 -2.14 1.14 -3.94 q1.08 -1.72 2.93 -2.73 t3.97 -1.01 q2.18 0 4.04 1.06 q1.82 1.04 2.88 2.82 q1.1 1.86 1.1 4.04 z M27.48 20.34 q-2.1 0 -3.61 -0.73 t-2.3 -2.11 t-0.79 -3.3 l0 -9.12 l2.16 0 l0 9.12 q0 1.92 1.18 2.94 t3.36 1.02 t3.36 -1.02 t1.18 -2.94 l0 -9.12 l2.16 0 l0 9.12 q0 1.92 -0.79 3.3 t-2.3 2.11 t-3.61 0.73 z M43.040000000000006 6.66 l-0.82 -1.84 l2.4 0 l7.18 15.18 l-2.44 0 l-0.98 -2.18 l-4.54 0 q-1.28 0 -2.3 0.24 q-0.9 0.22 -1.5 0.58 q-0.54 0.32 -0.72 0.66 l-0.38 0.7 l-2.36 0 z M44.64000000000001 15.620000000000001 l2.76 0 l-3.26 -6.3 l-3.3 7.14 q0.44 -0.38 1.34 -0.6 q1.02 -0.24 2.46 -0.24 z M65.06 20 l-10.46 0 l0 -14.92 l2.18 0 l0 12.74 l8.28 0 l0 2.18 z M69.80000000000001 20 l-2.14 0 l0 -14.92 l2.14 0 l0 14.92 z M85.30000000000001 7.279999999999999 l-5.26 0 l0 12.72 l-2.12 0 l0 -12.72 l-5.32 0 l0 -2.2 l12.7 0 l0 2.2 z M93.04000000000002 11.64 q1.34 -1.4 2.42 -3.12 t1.72 -3.44 l2.5 0 q-1.02 2.38 -2.48 4.56 q-1.32 1.98 -3.08 3.9 l0 6.46 l-2.16 0 l0 -6.46 q-1.76 -1.92 -3.08 -3.9 q-1.46 -2.18 -2.48 -4.56 l2.5 0 q0.64 1.72 1.72 3.44 t2.42 3.12 z M119.40000000000002 15.46 q0 1.46 -0.88 2.6 q-0.86 1.08 -2.37 1.68 t-3.41 0.6 q-1.74 0 -3.38 -0.81 t-2.76 -2.25 l1.56 -1.46 q1.94 2.34 4.58 2.34 q1.16 0 2.12 -0.28 q1.06 -0.32 1.64 -0.9 q0.66 -0.64 0.66 -1.52 q0 -1.06 -0.66 -1.6 q-0.56 -0.46 -1.66 -0.6 q-0.64 -0.08 -2.1 -0.08 q-2.68 0 -4.09 -0.98 t-1.41 -2.88 q0 -1.2 0.71 -2.28 t1.95 -1.72 q1.28 -0.68 2.84 -0.68 q1.76 0 3.18 0.54 q1.52 0.58 2.82 1.82 l-1.36 1.6 q-1.22 -0.98 -2.22 -1.37 t-2.42 -0.39 q-0.82 0 -1.53 0.34 t-1.13 0.91 t-0.42 1.21 q0 1.72 3.18 1.72 q2.54 0 4.02 0.52 q1.4 0.5 2 1.52 q0.54 0.9 0.54 2.4 z M124.78000000000002 14.02 l0 3.8 l9.2 0 l0 2.18 l-11.38 0 l0 -14.92 l10.5 0 l0 2.2 l-8.32 0 l0 4.52 q0.62 -0.36 1.38 -0.48 q0.56 -0.1 1.44 -0.1 l3.26 0 l0 2.22 l-3.26 0 q-0.82 0 -1.44 0.1 q-0.76 0.14 -1.38 0.48 z M139.66000000000003 7.26 l0 4.96 q0.62 -0.36 1.38 -0.48 q0.56 -0.1 1.44 -0.1 l2.84 0 q1.18 0 1.84 -0.54 q0.7 -0.58 0.7 -1.74 q0 -1.1 -0.74 -1.64 q-0.64 -0.46 -1.8 -0.46 l-5.66 0 z M146.04000000000002 17.64 l-1.82 -3.82 l-1.74 0 q-0.82 0 -1.44 0.1 q-0.76 0.14 -1.38 0.48 l0 5.6 l-2.18 0 l0 -14.92 l7.84 0 q1.38 0 2.44 0.52 t1.64 1.48 q0.62 1.02 0.62 2.4 q0 1.68 -0.9 2.76 t-2.54 1.5 l1.16 2.38 q0.5 0.74 0.78 1.04 q0.34 0.38 0.65 0.51 t0.81 0.13 l0.22 0 l0.48 -0.02 l0 2.22 q-1.16 0 -1.72 -0.08 q-0.94 -0.16 -1.6 -0.62 q-0.78 -0.56 -1.32 -1.66 z M167.68000000000004 5.08 l-6.26 14.92 l-2.58 0 l-6.16 -14.92 l2.36 0 l5.1 12.48 l5.14 -12.48 l2.4 0 z M172.62000000000003 20 l-2.14 0 l0 -14.92 l2.14 0 l0 14.92 z M189.8 7 l-1.4 1.64 q-0.82 -0.84 -1.96 -1.32 t-2.4 -0.48 q-1.64 0 -2.99 0.74 t-2.11 2.02 q-0.78 1.34 -0.78 2.98 q0 1.56 0.84 2.88 q0.8 1.24 2.15 1.97 t2.91 0.73 q1.44 0 2.68 -0.62 t2.06 -1.72 l1.34 1.82 q-1.14 1.28 -2.73 1.99 t-3.37 0.71 q-2.22 0 -4.08 -1.08 q-1.82 -1.04 -2.86 -2.86 q-1.08 -1.86 -1.08 -4.08 q0 -2.14 1.14 -3.94 q1.08 -1.72 2.93 -2.73 t3.97 -1.01 q1.66 0 3.16 0.64 q1.46 0.6 2.58 1.72 z M195.52 14.02 l0 3.8 l9.2 0 l0 2.18 l-11.38 0 l0 -14.92 l10.5 0 l0 2.2 l-8.32 0 l0 4.52 q0.62 -0.36 1.38 -0.48 q0.56 -0.1 1.44 -0.1 l3.26 0 l0 2.22 l-3.26 0 q-0.82 0 -1.44 0.1 q-0.76 0.14 -1.38 0.48 z"></path></g>
			</g>
		</svg>
	